<svg width="182" height="43" viewBox="0 0 182 43" fill="none" xmlns="http://www.w3.org/2000/svg">
<path d="M40.8385 20.2649C42.3104 20.2649 43.7481 20.5673 45.1515 21.1722C46.5549 21.7771 47.7101 22.7362 48.6172 24.0496C49.5243 25.3457 49.9778 27.0566 49.9778 29.1823V42.1695H42.1478V30.4784C42.1478 28.9576 41.7884 27.817 41.0696 27.0566C40.3508 26.279 39.4095 25.8901 38.2456 25.8901C37.4755 25.8901 36.7481 26.0975 36.0635 26.5123C35.396 26.9097 34.8484 27.48 34.4205 28.2232C34.0097 28.949 33.8044 29.7872 33.8044 30.7376V42.1695H26V20.8871H33.8044V24.0237C34.0097 23.4534 34.4376 22.8831 35.088 22.3128C35.7554 21.7252 36.5855 21.2413 37.5782 20.8611C38.5879 20.4636 39.6747 20.2649 40.8385 20.2649Z" fill="#2E2E2E"/>
<path d="M66.8357 7.32952C68.9408 7.32952 70.7806 7.56283 72.3552 8.02943C73.9298 8.49604 75.1962 8.98857 76.1547 9.50702C77.1131 10.0255 77.695 10.3711 77.9004 10.5439L74.2036 16.7913C73.9298 16.5839 73.4591 16.2815 72.7916 15.884C72.1413 15.4865 71.3625 15.1322 70.4554 14.8212C69.5655 14.5101 68.6327 14.3546 67.6572 14.3546C66.3393 14.3546 65.2697 14.5965 64.4481 15.0804C63.6438 15.547 63.2416 16.2469 63.2416 17.1801C63.2416 17.8195 63.4555 18.3985 63.8834 18.9169C64.3283 19.4181 64.9958 19.902 65.8858 20.3686C66.7929 20.8179 67.9396 21.3105 69.3259 21.8462C70.5924 22.3128 71.7818 22.8658 72.8943 23.5052C74.0068 24.1447 74.9823 24.9051 75.8209 25.7864C76.6767 26.6505 77.3527 27.6529 77.849 28.7935C78.3454 29.934 78.5935 31.2302 78.5935 32.6818C78.5935 34.41 78.2427 35.9135 77.541 37.1924C76.8393 38.4539 75.8808 39.4995 74.6657 40.329C73.4677 41.1585 72.0985 41.772 70.5581 42.1695C69.0349 42.5843 67.4518 42.7917 65.8088 42.7917C63.4812 42.7917 61.3932 42.5238 59.5448 41.9881C57.7135 41.4523 56.233 40.8734 55.1035 40.2512C53.9739 39.6291 53.2979 39.2143 53.0754 39.007L56.9005 32.5004C57.1059 32.6559 57.4995 32.9065 58.0814 33.2521C58.6805 33.5978 59.4078 33.9607 60.2636 34.3409C61.1193 34.7038 62.0264 35.0149 62.9848 35.2741C63.9604 35.5333 64.9188 35.6629 65.8601 35.6629C67.4347 35.6629 68.6156 35.3605 69.4029 34.7557C70.1902 34.1335 70.5838 33.3213 70.5838 32.3189C70.5838 31.5758 70.3356 30.9105 69.8393 30.3229C69.343 29.7353 68.5985 29.1823 67.6058 28.6638C66.6132 28.1281 65.3723 27.5664 63.8834 26.9789C62.3944 26.374 60.9995 25.6395 59.6988 24.7754C58.4152 23.9114 57.3712 22.8312 56.5668 21.5351C55.7624 20.239 55.3602 18.6318 55.3602 16.7135C55.3602 14.7952 55.8907 13.1362 56.9519 11.7364C58.0301 10.3193 59.4421 9.23052 61.1878 8.47012C62.9506 7.70972 64.8332 7.32952 66.8357 7.32952Z" fill="#A0A6AC"/>
<path d="M97.9283 20.2649C99.4002 20.2649 100.838 20.5673 102.241 21.1722C103.645 21.7771 104.8 22.7362 105.707 24.0496C106.614 25.3457 107.068 27.0566 107.068 29.1823V42.1695H99.2633V30.4784C99.2633 28.9576 98.921 27.817 98.2364 27.0566C97.5689 26.279 96.6533 25.8901 95.4895 25.8901C94.7193 25.8901 93.9834 26.0975 93.2817 26.5123C92.5799 26.9097 92.0066 27.48 91.5616 28.2232C91.1337 28.949 90.9198 29.7872 90.9198 30.7376V42.1695H83.0898V6.5H90.9198V24.0237C91.1081 23.4534 91.5274 22.8831 92.1777 22.3128C92.8452 21.7252 93.6753 21.2413 94.668 20.8611C95.6777 20.4636 96.7645 20.2649 97.9283 20.2649Z" fill="#A0A6AC"/>
<path d="M128.027 42.1695V38.7218C127.873 39.0674 127.479 39.5686 126.846 40.2253C126.23 40.882 125.408 41.4783 124.382 42.014C123.355 42.5324 122.157 42.7917 120.787 42.7917C118.734 42.7917 116.937 42.2905 115.396 41.2882C113.856 40.2685 112.658 38.9119 111.802 37.2183C110.946 35.5074 110.519 33.6151 110.519 31.5413C110.519 29.4674 110.946 27.5837 111.802 25.8901C112.658 24.1792 113.856 22.814 115.396 21.7943C116.937 20.7747 118.734 20.2649 120.787 20.2649C122.105 20.2649 123.261 20.4809 124.253 20.913C125.246 21.3277 126.05 21.8289 126.666 22.4165C127.282 22.9868 127.71 23.5139 127.95 23.9978V20.8871H135.703V42.1695H128.027ZM118.169 31.5413C118.169 32.509 118.391 33.3818 118.836 34.1594C119.281 34.9198 119.872 35.5161 120.608 35.9481C121.361 36.3801 122.191 36.5962 123.098 36.5962C124.039 36.5962 124.869 36.3801 125.588 35.9481C126.307 35.5161 126.872 34.9198 127.282 34.1594C127.71 33.3818 127.924 32.509 127.924 31.5413C127.924 30.5735 127.71 29.7094 127.282 28.949C126.872 28.1713 126.307 27.5664 125.588 27.1344C124.869 26.6851 124.039 26.4604 123.098 26.4604C122.191 26.4604 121.361 26.6851 120.608 27.1344C119.872 27.5664 119.281 28.1713 118.836 28.949C118.391 29.7094 118.169 30.5735 118.169 31.5413Z" fill="#A0A6AC"/>
<path d="M147.792 42.1695H139.988V20.8871H147.792V24.1792H147.664C147.801 23.7817 148.134 23.2806 148.665 22.6757C149.196 22.0536 149.94 21.5006 150.899 21.0167C151.857 20.5155 153.029 20.2649 154.416 20.2649C155.391 20.2649 156.29 20.4204 157.111 20.7315C157.933 21.0253 158.532 21.3105 158.908 21.587L155.879 27.9898C155.639 27.6961 155.211 27.3936 154.595 27.0826C153.996 26.7542 153.243 26.59 152.336 26.59C151.292 26.59 150.428 26.8579 149.743 27.3936C149.076 27.9294 148.579 28.5774 148.254 29.3378C147.946 30.0982 147.792 30.8154 147.792 31.4894V42.1695Z" fill="#A0A6AC"/>
<path d="M166.674 33.2003C166.725 33.9607 166.965 34.6347 167.393 35.2223C167.82 35.8098 168.411 36.2764 169.164 36.6221C169.934 36.9504 170.841 37.1146 171.885 37.1146C172.878 37.1146 173.768 37.0109 174.555 36.8035C175.359 36.5962 176.053 36.3369 176.635 36.0259C177.234 35.7148 177.696 35.3951 178.021 35.0667L181.05 39.9402C180.622 40.4068 180.015 40.8647 179.227 41.3141C178.457 41.7461 177.439 42.1004 176.172 42.3769C174.906 42.6534 173.306 42.7917 171.372 42.7917C169.044 42.7917 166.973 42.351 165.159 41.4696C163.345 40.5882 161.916 39.2921 160.872 37.5812C159.828 35.8703 159.306 33.7792 159.306 31.3079C159.306 29.2341 159.751 27.3677 160.641 25.7087C161.548 24.0323 162.857 22.7103 164.569 21.7425C166.28 20.7574 168.342 20.2649 170.756 20.2649C173.049 20.2649 175.034 20.6883 176.712 21.5351C178.406 22.3819 179.707 23.6435 180.614 25.3198C181.538 26.9789 182 29.0527 182 31.5413C182 31.6795 181.991 31.956 181.974 32.3708C181.974 32.7855 181.957 33.062 181.923 33.2003H166.674ZM174.658 29.0786C174.641 28.5256 174.495 27.9812 174.221 27.4455C173.947 26.8925 173.537 26.4431 172.989 26.0975C172.441 25.7346 171.74 25.5531 170.884 25.5531C170.028 25.5531 169.301 25.7259 168.702 26.0716C168.12 26.3999 167.675 26.832 167.367 27.3677C167.059 27.9034 166.888 28.4737 166.853 29.0786H174.658Z" fill="#A0A6AC"/>
<path fill-rule="evenodd" clip-rule="evenodd" d="M13 17.333H14.6252V35.7498H21.125V42.7915H0V35.7498H6.50022V24.9163H0V17.333H6.50022H13Z" fill="#2E2E2E"/>
<circle cx="7.31283" cy="6.77083" r="6.77083" fill="#2E2E2E"/>
</svg>
